<?xml version="1.0" encoding="UTF-8" standalone="no"?>
<!DOCTYPE svg PUBLIC "-//W3C//DTD SVG 1.1//EN" "http://www.w3.org/Graphics/SVG/1.1/DTD/svg11.dtd">
<svg width="100%" height="100%" viewBox="0 0 1080 1080" version="1.1" xmlns="http://www.w3.org/2000/svg" xmlns:xlink="http://www.w3.org/1999/xlink" xml:space="preserve" xmlns:serif="http://www.serif.com/" style="fill-rule:evenodd;clip-rule:evenodd;stroke-linejoin:round;stroke-miterlimit:2;">
    <g id="Layer-1" serif:id="Layer 1">
    </g>
    <g id="Layer-11" serif:id="Layer 1" transform="matrix(16.4787,0,0,16.4787,31.9175,137.611)">
        <g transform="matrix(1,0,0,1,47.3501,43.1449)">
            <path d="M0,-0.16C-0.19,-0.1 -0.39,-0.05 -0.59,0L-0.57,-0.03C-0.38,-0.07 -0.19,-0.11 0,-0.16" style="fill:rgb(248,237,32);fill-rule:nonzero;"/>
        </g>
        <g transform="matrix(1,0,0,1,42.4302,7.555)">
            <path d="M0,41.28C-7.13,41.4 -16.49,37.34 -18.58,30.04L-9.29,30.04C-6.66,33.82 -2.95,36.18 1.91,35.9C1.94,35.9 1.96,35.89 1.98,35.89C2.22,35.89 2.47,35.87 2.71,35.85C3.27,35.8 3.81,35.71 4.33,35.59C4.53,35.54 4.73,35.49 4.92,35.43C5.02,35.4 5.13,35.37 5.23,35.34C11.59,33.58 14.29,28.22 14.38,22.35C14.39,22.11 14.38,21.86 14.37,21.61C14.37,21.43 14.37,21.24 14.36,21.05C14.35,20.83 14.34,20.6 14.32,20.37C14.04,16.84 12.59,13.59 10.24,11.16C8.42,9.26 6.05,7.87 3.25,7.22C3.29,7.24 3.33,7.25 3.37,7.27C3.33,7.26 3.29,7.25 3.25,7.24C1.51,6.57 -0.36,6.24 -2.2,6.07C-3.59,5.94 -4.97,5.91 -6.26,5.9L-8.81,-0.09C-8.43,-0.11 -8.04,-0.12 -7.65,-0.12C-6.77,-0.12 -5.87,-0.09 -4.95,-0.03C5.19,0.68 17.12,5.47 18.83,16.5C20.92,29.86 14.96,41.01 0,41.28" style="fill:rgb(255,242,0);fill-rule:nonzero;"/>
        </g>
        <g transform="matrix(1,0,0,1,32.79,32.6348)">
            <path d="M0,4.46C0.11,4.63 0.22,4.8 0.35,4.96L-8.94,4.96C-9.07,4.55 -9.16,4.12 -9.23,3.69C-9.45,2.38 -9.43,0.981 -9.14,-0.5L1.99,-0.5C1.99,1.21 2.36,2.58 2.98,3.67C2.98,3.68 2.99,3.68 2.99,3.69L-0.49,3.69C-0.34,3.95 -0.17,4.21 0,4.46" style="fill:rgb(248,237,32);fill-rule:nonzero;"/>
        </g>
        <g transform="matrix(1,0,0,1,24.8701,21.1748)">
            <path d="M0,-6.08C-0.58,-5.9 -1.16,-5.72 -1.74,-5.52C-3.18,-5.04 -4.6,-4.49 -5.98,-3.89C-6.66,-3.61 -7.33,-3.309 -7.99,-3C-15.71,0.59 -22.17,5.29 -24.87,7.63C-24.32,6.77 -16.16,-3.58 -5.03,-9.55C-4.42,-9.88 -3.8,-10.2 -3.17,-10.5C-1.17,-11.45 0.91,-12.25 3.05,-12.809C4.05,-13.08 5.07,-13.29 6.1,-13.45C6.97,-13.58 7.85,-13.67 8.75,-13.71L11.3,-7.72C11.06,-7.73 10.83,-7.73 10.6,-7.73L9.92,-7.73C9.51,-7.73 9.1,-7.71 8.7,-7.69C5.81,-7.52 2.88,-6.93 0,-6.08" style="fill:rgb(248,237,32);fill-rule:nonzero;"/>
        </g>
        <g transform="matrix(1,0,0,1,44.3398,37.8751)">
            <path d="M0,5.58C-4.86,5.86 -8.57,3.5 -11.2,-0.28C-8.47,3.45 -4.26,5.66 0,5.58" style="fill:rgb(248,237,32);fill-rule:nonzero;"/>
        </g>
        <g transform="matrix(1,0,0,1,52.6699,14.7749)">
            <path d="M0,3.94C-1.8,2.09 -4.13,0.71 -6.87,0.05C-6.91,0.03 -6.95,0.02 -6.99,0C-4.19,0.65 -1.82,2.04 0,3.94" style="fill:rgb(248,237,32);fill-rule:nonzero;"/>
        </g>
        <g transform="matrix(1,0,0,1,47.3501,43.1449)">
            <path d="M0,-0.16C-0.19,-0.1 -0.39,-0.05 -0.59,0L-0.57,-0.03C-0.38,-0.07 -0.19,-0.11 0,-0.16" style="fill:rgb(248,237,32);fill-rule:nonzero;"/>
        </g>
        <g transform="matrix(1,0,0,1,56.8101,29.2148)">
            <path d="M0,0.69L-0.03,0.74C-0.02,0.48 -0.01,0.22 -0.01,-0.05C0,0.2 0.01,0.45 0,0.69" style="fill:rgb(248,237,32);fill-rule:nonzero;"/>
        </g>
        <g transform="matrix(1,0,0,1,56.8101,28.4548)">
            <path d="M0,1.45C-0.09,7.32 -2.79,12.68 -9.15,14.44C-9.25,14.47 -9.36,14.5 -9.46,14.53C-9.65,14.58 -9.84,14.62 -10.03,14.66C-10.55,14.78 -11.1,14.86 -11.67,14.93C-11.92,14.96 -12.16,14.98 -12.4,14.99C-12.42,14.99 -12.44,15 -12.47,15C-16.73,15.08 -20.94,12.87 -23.67,9.14L-20.05,9.14C-16.43,12.81 -8.88,11.44 -6.74,9.67C-1.83,5.63 -2.2,-4.09 -5.34,-9.02C-6.82,-11.35 -8.82,-12.76 -11.01,-13.63C-8.27,-12.97 -5.94,-11.59 -4.14,-9.74C-1.79,-7.31 -0.34,-4.06 -0.06,-0.53C-0.04,-0.3 -0.03,-0.07 -0.02,0.15C-0.01,0.34 -0.01,0.53 -0.01,0.71C-0.01,0.98 -0.02,1.24 -0.03,1.5L0,1.45Z" style="fill:rgb(251,176,64);fill-rule:nonzero;"/>
        </g>
        <g transform="matrix(1,0,0,1,36.7598,36.3048)">
            <path d="M0,1.29L-3.62,1.29C-3.75,1.13 -3.86,0.96 -3.97,0.79C-4.13,0.54 -4.29,0.28 -4.45,0.02C-4.45,0.01 -4.46,0.01 -4.46,0L-0.979,0C-0.7,0.49 -0.37,0.91 0,1.29" style="fill:rgb(251,176,66);fill-rule:nonzero;"/>
        </g>
        <g transform="matrix(1,0,0,1,44.3398,37.8751)">
            <path d="M0,5.58C-4.86,5.86 -8.57,3.5 -11.2,-0.28C-8.47,3.45 -4.26,5.66 0,5.58" style="fill:rgb(251,176,66);fill-rule:nonzero;"/>
        </g>
        <g transform="matrix(1,0,0,1,45.6802,18.7149)">
            <path d="M0,-3.94C2.8,-3.29 5.17,-1.9 6.99,0C5.19,-1.85 2.86,-3.23 0.12,-3.89C0.08,-3.91 0.04,-3.92 0,-3.94" style="fill:rgb(251,176,66);fill-rule:nonzero;"/>
        </g>
        <g transform="matrix(1,0,0,1,56.8101,29.2148)">
            <path d="M0,0.69L-0.03,0.74C-0.02,0.48 -0.01,0.22 -0.01,-0.05C0,0.2 0.01,0.45 0,0.69" style="fill:rgb(251,176,66);fill-rule:nonzero;"/>
        </g>
        <g transform="matrix(1,0,0,1,41.6099,-0.6452)">
            <path d="M0,38.24L-26.54,38.24C-28.82,38.24 -30.37,35.91 -29.47,33.81L-22.72,17.93L-19.91,11.32L-16.2,2.58C-15.1,0 -11.44,0 -10.34,2.58L-7.99,8.11L-5.44,14.1L2.94,33.81C3.83,35.91 2.29,38.24 0,38.24" style="fill:rgb(33,30,31);fill-rule:nonzero;"/>
        </g>
        <g transform="matrix(0,-1,-1,0,28.3747,16.3177)">
            <path d="M-6.449,-6.449C-10.009,-6.449 -12.898,-3.562 -12.898,0.001C-12.898,3.561 -10.009,6.449 -6.449,6.449C-2.887,6.449 0.001,3.561 0.001,0.001C0.001,-3.562 -2.887,-6.449 -6.449,-6.449" style="fill:white;fill-rule:nonzero;"/>
        </g>
    </g>
    <g id="Layer-12" serif:id="Layer 1">
    </g>
</svg>
